<?xml version="1.0" standalone="no"?>
<!DOCTYPE svg PUBLIC "-//W3C//DTD SVG 20010904//EN"
 "http://www.w3.org/TR/2001/REC-SVG-20010904/DTD/svg10.dtd">
<svg version="1.0" xmlns="http://www.w3.org/2000/svg"
 width="800.000000pt" height="800.000000pt" viewBox="0 0 800.000000 800.000000"
 preserveAspectRatio="xMidYMid meet">
<metadata>
Created by potrace 1.11, written by Peter Selinger 2001-2013
</metadata>
<g transform="translate(0.000000,800.000000) scale(0.100000,-0.100000)"
fill="#000000" stroke="none">
<path d="M3450 7989 c-19 -5 -55 -11 -80 -14 -25 -3 -54 -7 -65 -9 -200 -42
-306 -67 -330 -76 -16 -6 -30 -11 -30 -10 0 5 -103 -26 -225 -67 -392 -132
-754 -324 -1100 -582 -63 -47 -120 -90 -126 -96 -6 -5 -36 -30 -65 -55 -249
-208 -547 -537 -724 -800 -221 -329 -373 -633 -496 -997 -41 -119 -103 -343
-123 -443 -34 -168 -45 -229 -45 -245 -1 -53 -26 -225 -33 -225 -4 0 -8 -169
-8 -375 0 -243 4 -375 10 -375 5 0 9 -3 8 -7 -6 -23 28 -267 55 -398 3 -11 8
-38 12 -60 5 -22 10 -44 11 -50 2 -5 6 -23 9 -39 65 -315 257 -796 440 -1104
66 -110 165 -265 197 -307 5 -5 40 -53 79 -105 40 -52 95 -122 123 -155 28
-33 62 -73 76 -90 14 -16 93 -98 177 -181 452 -452 1006 -787 1623 -982 126
-40 376 -101 480 -118 19 -3 51 -9 70 -15 20 -5 291 -9 622 -9 480 0 599 3
657 15 39 8 85 17 103 20 187 31 549 140 768 230 298 123 648 327 900 522 59
46 212 173 245 204 22 21 57 53 77 72 20 19 34 38 30 42 -4 4 -2 5 4 3 23 -6
268 264 406 447 77 103 196 278 239 352 86 147 106 185 154 281 79 160 146
313 139 323 -3 5 -1 9 4 9 7 0 96 241 109 295 1 6 18 69 37 140 56 202 116
533 116 632 0 18 5 33 10 33 13 0 14 747 1 752 -4 2 -11 35 -14 73 -6 59 -18
144 -43 290 -3 17 -9 46 -14 65 -5 19 -12 51 -15 70 -6 36 -33 143 -42 170 -3
8 -7 22 -8 30 -1 8 -12 49 -25 90 -13 41 -24 77 -25 80 -1 3 -4 12 -8 20 -3 8
-17 50 -32 94 -25 77 -58 161 -94 241 -10 22 -31 68 -46 103 -15 34 -32 62
-37 62 -5 0 -7 4 -4 9 3 4 -23 63 -59 129 -226 421 -525 801 -875 1111 -41 36
-91 81 -110 98 -19 18 -38 33 -42 33 -4 0 -15 8 -25 19 -10 10 -75 59 -145
109 -260 187 -511 328 -803 452 -115 49 -407 150 -433 150 -10 0 -23 5 -30 12
-7 7 -12 9 -12 5 0 -3 -12 -2 -27 4 -28 10 -224 56 -276 64 -16 2 -79 13 -142
25 -105 18 -152 20 -617 19 -277 -1 -519 -5 -538 -10z"/>
</g>
</svg>
